#define im_width 264
#define im_height 167
static char im_bits[] = {
0x00,0x00,0x00,0x00,0x00,0x00,0x00,0x00,0x00,0x00,0x00,0x00,0x00,0x00,0x00,
0x00,0x00,0x00,0x00,0x00,0x00,0x00,0x00,0x00,0x00,0x00,0x00,0x00,0x00,0x00,
0x00,0x00,0x00,0x00,0x00,0x00,0x00,0x00,0x00,0x00,0x00,0x00,0x00,0x00,0x00,
0x00,0x00,0x00,0x00,0x00,0x00,0x00,0x00,0x00,0x00,0x00,0x00,0x00,0x00,0x00,
0x00,0x00,0x00,0x00,0x00,0x00,0x00,0x00,0x00,0x00,0x00,0x00,0x00,0x00,0x00,
0x00,0x00,0x00,0x00,0x00,0x00,0x00,0x00,0x00,0x00,0x00,0x00,0x00,0x00,0x00,
0x00,0x00,0x00,0x00,0x00,0x00,0x00,0x00,0x00,0x00,0x00,0x00,0x00,0x00,0x00,
0x00,0x00,0x00,0x00,0x00,0x00,0x00,0x00,0x00,0x00,0x00,0x00,0x00,0x00,0x00,
0x00,0x00,0x00,0x00,0x00,0x00,0x00,0x00,0x00,0x00,0x00,0x00,0x00,0x00,0x00,
0x00,0x00,0x00,0x00,0x00,0x00,0x00,0x00,0x00,0x00,0x00,0x00,0x00,0x00,0x00,
0x00,0x00,0x00,0x00,0x00,0x00,0x00,0x00,0x00,0x00,0x00,0x00,0x00,0x00,0x00,
0x00,0x00,0x00,0x00,0x00,0x00,0x00,0x00,0x00,0x00,0x00,0x00,0x00,0x00,0x00,
0x00,0x00,0x00,0x00,0x00,0x00,0x00,0x00,0x00,0x00,0x00,0x00,0x00,0x00,0x00,
0x00,0x00,0x00,0x00,0x00,0x00,0x00,0x00,0x00,0x00,0x00,0x00,0x00,0x00,0x00,
0x00,0x00,0x00,0x00,0x00,0x00,0x00,0x00,0x00,0x00,0x00,0x00,0x00,0x00,0x00,
0x00,0x00,0x00,0x00,0x00,0x00,0xe0,0x0f,0x03,0xe0,0x01,0x00,0xe0,0xf3,0x81,
0x0f,0x00,0x00,0x40,0x40,0x00,0x00,0x00,0x1c,0x00,0x00,0x04,0x40,0x00,0x00,
0x00,0x00,0x00,0x00,0x00,0x00,0x00,0x00,0x00,0xa0,0x9c,0x09,0x40,0x72,0x7c,
0x40,0x1b,0x01,0xc9,0xf7,0x7c,0xc7,0x63,0x7c,0xdf,0x01,0x18,0xcd,0x01,0x3c,
0xee,0x01,0x00,0x00,0x00,0x00,0x00,0x00,0x00,0x00,0x00,0x00,0xa0,0xfc,0x01,
0x40,0x92,0x18,0xc0,0x09,0x00,0x87,0x41,0x22,0x49,0x44,0x98,0x48,0x02,0x24,
0x49,0x02,0x24,0x48,0x00,0x00,0x00,0x00,0x00,0x00,0x00,0x00,0x00,0x00,0x00,
0x80,0xf8,0x01,0x40,0xfa,0x08,0x40,0x08,0x00,0x85,0x60,0xa2,0x4f,0x44,0x88,
0xe8,0x03,0x3c,0xe9,0x03,0x24,0x4f,0x00,0x00,0x00,0x00,0x00,0x00,0x00,0x00,
0x00,0x00,0x00,0x80,0xe8,0x01,0x40,0x12,0x08,0x40,0x18,0x00,0x89,0x30,0x22,
0x41,0x44,0x88,0x48,0x00,0x22,0x49,0x00,0xa4,0x48,0x02,0x00,0x00,0x00,0x00,
0x00,0x00,0x00,0x00,0x00,0x00,0xc0,0x0d,0x0b,0xe0,0xf1,0x3c,0xe0,0xf0,0x81,
0xcf,0xf3,0x3c,0xcf,0xf3,0x3c,0xcf,0x03,0x66,0xdf,0x03,0xe6,0xdf,0x03,0x00,
0x00,0x00,0x00,0x00,0x00,0x00,0x00,0x00,0x00,0x00,0x00,0x00,0x00,0x00,0x00,
0x00,0x00,0x00,0x00,0x00,0x20,0x00,0x00,0x00,0x08,0x00,0x00,0x00,0x00,0x00,
0x00,0x00,0x00,0x00,0x00,0x00,0x00,0x00,0x00,0x00,0x00,0x00,0x00,0x00,0x00,
0x00,0x00,0x00,0x00,0x00,0x00,0x00,0x00,0x38,0x00,0x00,0x00,0x0e,0x00,0x00,
0x00,0x00,0x00,0x00,0x00,0x00,0x00,0x00,0x00,0x00,0x00,0x00,0x00,0x00,0x00,
0x00,0x00,0x00,0x00,0x00,0x00,0x00,0x00,0x00,0x00,0x00,0x00,0x00,0x00,0x00,
0x00,0x00,0x00,0x00,0x00,0x00,0x00,0x00,0x00,0x00,0x00,0x00,0x00,0x00,0x00,
0x00,0x00,0x00,0x00,0x00,0x00,0x00,0x00,0x00,0x00,0x00,0x00,0x00,0x00,0x00,
0x00,0x00,0x00,0x00,0x00,0x00,0x00,0x00,0x00,0x00,0x00,0x00,0x00,0x40,0x00,
0x00,0x00,0x02,0x00,0x00,0x00,0x10,0x26,0x82,0x00,0x30,0x1c,0xc0,0x40,0x00,
0x80,0x00,0x0c,0x00,0x00,0x1f,0x20,0x20,0x00,0xf0,0x01,0x00,0x07,0x00,0x00,
0x00,0x20,0x1f,0x20,0x00,0x04,0x00,0x00,0x00,0x30,0x33,0xcf,0xe3,0x20,0x9e,
0x83,0x78,0xde,0xc7,0x38,0x88,0xe3,0x03,0x1a,0xe7,0x31,0x1e,0xa0,0x70,0x9a,
0xff,0x73,0xcf,0x03,0x20,0x9a,0xf7,0x78,0x04,0x00,0x00,0x00,0xf0,0x23,0x82,
0x20,0x21,0x84,0x84,0x4c,0x86,0x88,0x48,0x88,0xc4,0x00,0x0e,0x24,0x22,0x31,
0x60,0x40,0x12,0x91,0x42,0x92,0x04,0x20,0x4e,0x2c,0xc4,0x04,0x00,0x00,0x00,
0xf0,0x23,0x82,0xf0,0x21,0xc4,0x87,0x44,0x9e,0x88,0x7c,0xc8,0x47,0x00,0x82,
0x27,0x22,0x21,0xa0,0x78,0x12,0x91,0x7a,0x92,0x04,0x20,0x42,0x28,0x84,0x04,
0x00,0x00,0x00,0xd0,0x23,0x92,0x24,0x20,0x84,0x80,0x44,0x9c,0x88,0x08,0x88,
0x40,0x00,0x42,0x24,0x22,0x31,0xa0,0x44,0x12,0x91,0x46,0x92,0x04,0x20,0x42,
0x2c,0xc5,0x04,0x00,0x00,0x00,0x10,0x7e,0x9e,0xe7,0x79,0x9e,0xe7,0xf9,0x9e,
0xe7,0x79,0x9e,0xe7,0x01,0xc7,0xef,0x79,0x1e,0x70,0xff,0xbe,0x9f,0xfe,0xdb,
0x06,0x40,0x87,0xe7,0x79,0x02,0x00,0x00,0x00,0x00,0x00,0x00,0x00,0x00,0x00,
0x00,0x00,0x80,0x00,0x00,0x00,0x00,0x00,0x00,0x00,0x00,0x00,0x00,0x00,0x00,
0x00,0x00,0x00,0x00,0x40,0x00,0x00,0x00,0x02,0x00,0x00,0x00,0x00,0x00,0x00,
0x00,0x00,0x00,0x00,0x00,0xc0,0x01,0x00,0x00,0x00,0x00,0x00,0x00,0x00,0x00,
0x00,0x00,0x00,0x00,0x00,0x00,0x00,0x00,0x00,0x00,0x00,0x00,0x00,0x00,0x00,
0x00,0x00,0x00,0x00,0x00,0x00,0x00,0x00,0x00,0x00,0x00,0x00,0x00,0x00,0x00,
0x00,0x00,0x00,0x00,0x00,0x00,0x00,0x00,0x00,0x00,0x00,0x00,0x00,0x00,0x00,
0x00,0x00,0x00,0x00,0x00,0x00,0x00,0x00,0x00,0x00,0x00,0x00,0x00,0x00,0x00,
0x00,0x00,0x00,0x00,0x00,0x00,0x00,0x00,0x00,0x00,0x00,0x00,0x00,0x00,0x00,
0x00,0x00,0x00,0x00,0x00,0x00,0x00,0x00,0x00,0x00,0x00,0x00,0x00,0x00,0x00,
0x00,0x00,0x00,0x00,0x00,0x00,0x00,0x00,0x00,0x00,0x00,0x00,0x00,0x00,0x00,
0x00,0x00,0x00,0x00,0x00,0x00,0x00,0x00,0x00,0x00,0x00,0x00,0x80,0x63,0x10,
0x40,0x10,0x00,0x01,0x00,0x1e,0x00,0x00,0x18,0x0f,0x40,0x14,0x01,0x40,0x00,
0x00,0x00,0x00,0x00,0x00,0x00,0x00,0x00,0x00,0x00,0x00,0x00,0x60,0x73,0xfc,
0xcf,0x43,0x18,0xce,0x7b,0x9c,0x07,0x00,0x24,0xc7,0x07,0x24,0x08,0xe0,0x38,
0xcf,0x67,0x7c,0x07,0x00,0x00,0x00,0x00,0x00,0x00,0x00,0x00,0x00,0x00,0x00,
0x40,0x91,0x18,0x91,0x40,0x10,0x49,0x12,0x24,0x01,0x00,0x24,0x89,0x01,0x20,
0x04,0x80,0x20,0x89,0x41,0x22,0x09,0x00,0x00,0x00,0x00,0x00,0x00,0x00,0x00,
0x00,0x00,0x00,0x40,0xf9,0x08,0x91,0x40,0x10,0x41,0x12,0x3e,0x01,0x00,0xa4,
0x8f,0x00,0x10,0xe8,0x87,0x3c,0x89,0x40,0xa2,0x0f,0x00,0x00,0x00,0x00,0x00,
0x00,0x00,0x00,0x00,0x00,0x00,0xc0,0x11,0x08,0x91,0x40,0x10,0x51,0x92,0x04,
0x09,0x00,0x24,0x81,0x00,0x08,0x08,0x80,0x22,0x89,0x40,0x22,0x01,0x00,0x00,
0x00,0x00,0x00,0x00,0x00,0x00,0x00,0x00,0x00,0x80,0xf0,0x3c,0xcf,0xf3,0x3c,
0x7e,0xf6,0x3c,0x8f,0x00,0x1e,0xcf,0x03,0x3c,0x07,0x80,0xfe,0xd9,0xf3,0x3c,
0x0f,0x00,0x00,0x00,0x00,0x00,0x00,0x00,0x00,0x00,0x00,0x00,0x00,0x00,0x00,
0x01,0x00,0x00,0x00,0x00,0x00,0x00,0x00,0x00,0x00,0x00,0x00,0x00,0x80,0x00,
0x00,0x00,0x20,0x00,0x00,0x00,0x00,0x00,0x00,0x00,0x00,0x00,0x00,0x00,0x00,
0x00,0x00,0x80,0x03,0x00,0x00,0x00,0x00,0x00,0x00,0x00,0x00,0x00,0x00,0x00,
0x00,0xe0,0x00,0x00,0x00,0x38,0x00,0x00,0x00,0x00,0x00,0x00,0x00,0x00,0x00,
0x00,0x00,0x00,0x00,0x00,0x00,0x00,0x00,0x00,0x00,0x00,0x00,0x00,0x00,0x00,
0x00,0x00,0x00,0x00,0x00,0x00,0x00,0x00,0x00,0x00,0x00,0x00,0x00,0x00,0x00,
0x00,0x00,0x00,0x00,0x00,0x00,0x00,0x00,0x00,0x00,0x00,0x00,0x00,0x00,0x00,
0x00,0x00,0x00,0x00,0x00,0x00,0x00,0x00,0x00,0x00,0x00,0x00,0x00,0x00,0x00,
0x00,0x00,0x00,0x00,0x00,0x00,0x00,0x00,0x00,0x10,0x26,0x82,0x00,0x30,0x1c,
0xc0,0x40,0x00,0x80,0x00,0x0c,0x00,0x00,0x02,0x00,0x00,0x02,0x00,0x00,0x00,
0xf0,0xf9,0xc0,0x07,0x00,0x00,0x80,0x00,0x00,0x00,0x00,0x00,0x30,0x33,0xcf,
0xe3,0x20,0x9e,0x83,0x78,0xde,0xc7,0x38,0x88,0xe3,0x03,0x9a,0xff,0xff,0x0f,
0xb0,0xf9,0x3f,0xa0,0x8d,0x80,0xf4,0x38,0xbe,0xcf,0x38,0x00,0x00,0x00,0x00,
0xf0,0x23,0x82,0x20,0x21,0x84,0x84,0x4c,0x86,0x88,0x48,0x88,0xc4,0x00,0x4e,
0x9c,0xa6,0x02,0xa0,0xc4,0x29,0xe0,0x04,0x80,0x23,0x49,0x4c,0x84,0x48,0x00,
0x00,0x00,0x00,0xf0,0x23,0x82,0xf0,0x21,0xc4,0x87,0x44,0x9e,0x88,0x7c,0xc8,
0x47,0x00,0x46,0x98,0xa6,0x02,0xa0,0x84,0x29,0x20,0x04,0x80,0x22,0x7d,0x44,
0x84,0x7c,0x00,0x00,0x00,0x00,0xd0,0x23,0x92,0x24,0x20,0x84,0x80,0x44,0x9c,
0x88,0x08,0x88,0x40,0x00,0x4a,0x9c,0xa6,0x12,0xe0,0xc4,0x29,0x20,0x0c,0x80,
0x24,0x09,0x44,0x84,0x08,0x00,0x00,0x00,0x00,0x10,0x7e,0x9e,0xe7,0x79,0x9e,
0xe7,0xf9,0x9e,0xe7,0x79,0x9e,0xe7,0x01,0x9a,0x9f,0xa6,0x1e,0x40,0xf8,0x29,
0x70,0xf8,0xc0,0xb7,0x79,0x9e,0xe7,0x79,0x00,0x00,0x00,0x00,0x00,0x00,0x00,
0x00,0x00,0x00,0x00,0x00,0x80,0x00,0x00,0x00,0x00,0x00,0x00,0x00,0x00,0x00,
0x00,0x00,0x00,0x00,0x00,0x00,0x00,0x00,0x00,0x04,0x00,0x00,0x00,0x00,0x00,
0x00,0x00,0x00,0x00,0x00,0x00,0x00,0x00,0xc0,0x01,0x00,0x00,0x00,0x00,0x00,
0x00,0x00,0x00,0x00,0x00,0x00,0x00,0x00,0x00,0x00,0x00,0x00,0x07,0x00,0x00,
0x00,0x00,0x00,0x00,0x00,0x00,0x00,0x00,0x00,0x00,0x00,0x00,0x00,0x00,0x00,
0x00,0x00,0x00,0x00,0x00,0x00,0x00,0x00,0x00,0x00,0x00,0x00,0x00,0x00,0x00,
0x00,0x00,0x00,0x00,0x00,0x00,0x00,0x00,0x00,0x00,0x00,0x00,0x00,0x00,0x00,
0x00,0x00,0x00,0x00,0x00,0x00,0x00,0x00,0x00,0x00,0x00,0x00,0x00,0x00,0x00,
0x00,0x00,0x00,0x00,0x00,0x00,0x00,0x00,0x00,0xc0,0x07,0x04,0x41,0x00,0x00,
0x00,0x00,0x20,0x00,0x00,0x04,0x85,0x11,0x00,0x01,0x40,0x00,0xc0,0x01,0x38,
0x40,0x00,0x10,0x00,0x00,0x00,0x04,0x00,0x00,0x00,0x00,0x00,0x60,0xf4,0x9e,
0xc7,0xd3,0x3c,0x40,0x7b,0x3c,0xc0,0xf1,0x3d,0x0e,0x79,0x00,0xcf,0x61,0x7f,
0x80,0xd1,0x3c,0xef,0x71,0x18,0xdf,0xf1,0x01,0xe6,0x01,0x00,0x00,0x00,0x00,
0x20,0x88,0x05,0x41,0x94,0x0c,0x40,0x92,0x26,0x40,0x62,0x24,0x08,0x11,0x00,
0x51,0x42,0x52,0x40,0x92,0x08,0x43,0x90,0x90,0x48,0x62,0x00,0x44,0x02,0x00,
0x00,0x00,0x00,0x20,0x08,0x05,0x41,0x94,0x3c,0x40,0x92,0x22,0xe0,0x23,0x24,
0x0f,0x11,0x00,0xf1,0x43,0x52,0xc0,0x93,0x08,0x4f,0xf8,0x90,0xe8,0x23,0x00,
0x44,0x02,0x00,0x00,0x00,0x00,0x60,0x88,0x25,0x49,0x94,0x38,0x40,0x92,0x22,
0x40,0x20,0xa4,0x08,0x91,0x00,0x51,0x40,0x52,0x20,0x92,0x08,0x4e,0x12,0x90,
0x48,0x20,0x00,0x44,0x02,0x00,0x00,0x00,0x00,0xc0,0xf7,0x3c,0xcf,0xf3,0x3d,
0xc0,0xdf,0x7c,0xc0,0xf3,0xe6,0xdf,0xf3,0x00,0xcf,0xf3,0x53,0x60,0xf6,0x3d,
0xcf,0xf3,0x3c,0xcf,0xf3,0x00,0x6f,0x03,0x00,0x00,0x00,0x00,0x00,0x00,0x00,
0x00,0x00,0x00,0x00,0x00,0x00,0x00,0x00,0x00,0x00,0x00,0x00,0x00,0x00,0x00,
0x00,0x00,0x00,0x00,0x00,0x00,0x08,0x00,0x00,0x00,0x00,0x00,0x00,0x00,0x00,
0x00,0x00,0x00,0x00,0x00,0x00,0x00,0x00,0x00,0x00,0x00,0x00,0x00,0x00,0x00,
0x00,0x00,0x00,0x00,0x00,0x00,0x00,0x00,0x00,0x0e,0x00,0x00,0x00,0x00,0x00,
0x00,0x00,0x00,0x00,0x00,0x00,0x00,0x00,0x00,0x00,0x00,0x00,0x00,0x00,0x00,
0x00,0x00,0x00,0x00,0x00,0x00,0x00,0x00,0x00,0x00,0x00,0x00,0x00,0x00,0x00,
0x00,0x00,0x00,0x00,0x00,0x00,0x00,0x00,0x00,0x00,0x00,0x00,0x00,0x00,0x00,
0x00,0x00,0x00,0x00,0x00,0x00,0x00,0x00,0x00,0x00,0x00,0x00,0x00,0x00,0x00,
0x00,0x00,0x00,0x00,0x00,0x00,0x00,0x00,0x00,0x00,0x42,0x00,0x00,0x00,0x00,
0x00,0x00,0x00,0x00,0x00,0x00,0x00,0x00,0x00,0x00,0x00,0x00,0x00,0x00,0x00,
0x00,0x00,0x00,0x00,0x00,0x00,0x00,0x00,0x00,0x00,0x00,0x00,0xc0,0x63,0x1c,
0x00,0x00,0x00,0x00,0x00,0x00,0x00,0x00,0x00,0x00,0x00,0x00,0x00,0x00,0x00,
0x00,0x00,0x00,0x00,0x00,0x00,0x00,0x00,0x00,0x00,0x00,0x00,0x00,0x00,0x00,
0x60,0x42,0x24,0x00,0x00,0x00,0x00,0x00,0x00,0x00,0x00,0x00,0x00,0x00,0x00,
0x00,0x00,0x00,0x00,0x00,0x00,0x00,0x00,0x00,0x00,0x00,0x00,0x00,0x00,0x00,
0x00,0x00,0x00,0x20,0x42,0x3e,0x00,0x00,0x00,0x00,0x00,0x00,0x00,0x00,0x00,
0x00,0x00,0x00,0x00,0x00,0x00,0x00,0x00,0x00,0x00,0x00,0x00,0x00,0x00,0x00,
0x00,0x00,0x00,0x00,0x00,0x00,0x20,0x42,0x04,0x00,0x00,0x00,0x00,0x00,0x00,
0x00,0x00,0x00,0x00,0x00,0x00,0x00,0x00,0x00,0x00,0x00,0x00,0x00,0x00,0x00,
0x00,0x00,0x00,0x00,0x00,0x00,0x00,0x00,0x00,0xc0,0xf7,0x3c,0x82,0x20,0x00,
0x00,0x00,0x00,0x00,0x00,0x00,0x00,0x00,0x00,0x00,0x00,0x00,0x00,0x00,0x00,
0x00,0x00,0x00,0x00,0x00,0x00,0x00,0x00,0x00,0x00,0x00,0x00,0x00,0x00,0x00,
0x00,0x00,0x00,0x00,0x00,0x00,0x00,0x00,0x00,0x00,0x00,0x00,0x00,0x00,0x00,
0x00,0x00,0x00,0x00,0x00,0x00,0x00,0x00,0x00,0x00,0x00,0x00,0x00,0x00,0x00,
0x00,0x01,0x00,0x00,0x00,0x00,0x00,0x00,0x00,0x00,0x00,0x00,0x00,0x00,0x00,
0x00,0x00,0x00,0x00,0x00,0x00,0x00,0x00,0x00,0x00,0x00,0x00,0x00,0x00,0x00,
0x00,0x00,0x00,0x00,0x01,0x00,0x00,0x00,0x00,0x00,0x00,0x00,0x00,0x00,0x00,
0x00,0x00,0x00,0x00,0x00,0x00,0x00,0x00,0x00,0x00,0x00,0x00,0x00,0x00,0x00,
0x00,0x00,0x00,0x00,0x00,0x00,0x00,0x01,0x00,0x00,0x00,0x00,0x00,0x00,0x00,
0x00,0x00,0x00,0x00,0x00,0x00,0x00,0x00,0x00,0x00,0x00,0x00,0x00,0x00,0x00,
0x00,0x00,0x00,0x00,0x00,0x00,0x00,0x00,0x00,0x00,0x01,0x00,0x00,0x00,0x00,
0x00,0x00,0x00,0x00,0x00,0x00,0x00,0x00,0x00,0x00,0x00,0x00,0x00,0x00,0x00,
0x00,0x00,0x00,0x00,0x00,0x00,0x00,0x00,0x00,0x00,0x00,0x00,0x00,0x01,0x00,
0x00,0x00,0x00,0x00,0x00,0x00,0x00,0x00,0x00,0x00,0x00,0x00,0x00,0x00,0x00,
0x00,0x00,0x00,0x00,0x00,0x00,0x00,0x00,0x00,0x00,0x00,0x00,0x00,0x00,0x00,
0x00,0x01,0x00,0x00,0x00,0x00,0x00,0x00,0x00,0x00,0x00,0x00,0x00,0x00,0x00,
0x00,0x00,0x00,0x00,0x00,0x00,0x00,0x00,0x00,0x00,0x00,0x00,0x00,0x00,0x00,
0x00,0x00,0x00,0x00,0x01,0x00,0x00,0x00,0x00,0x00,0x00,0x00,0x00,0x00,0x00,
0x00,0x00,0x00,0x00,0x00,0x00,0x00,0x00,0x00,0x00,0x00,0x00,0x00,0x00,0x00,
0x00,0x00,0x00,0x00,0x00,0x00,0x00,0x00,0x00,0x00,0x00,0x00,0x00,0x00,0x00,
0x00,0x00,0x00,0x00,0x00,0x00,0x00,0x00,0x00,0x00,0x00,0x00,0x00,0x00,0x00,
0x00,0x00,0x00,0x00,0x00,0x00,0x00,0x00,0x00,0x00,0x00,0x00,0x00,0x00,0x00,
0x00,0x00,0x00,0x00,0x00,0x00,0x00,0x00,0x00,0x00,0x00,0x00,0x00,0x00,0x00,
0x00,0x00,0x00,0x00,0x00,0x00,0x00,0x00,0x00,0x00,0x00,0x00,0x00,0x00,0x00,
0x00,0x00,0x00,0x00,0x00,0x00,0x00,0x00,0x00,0x00,0x00,0x00,0x00,0x00,0x00,
0x00,0x00,0x00,0x00,0x00,0x00,0x00,0x00,0x00,0x00,0x00,0x00,0x00,0x00,0x00,
0x00,0x00,0x00,0x00,0x00,0x00,0x00,0x00,0x00,0x00,0x00,0x00,0x00,0x00,0x00,
0x00,0x00,0x00,0x00,0x00,0x00,0x00,0x00,0x00,0x02,0x00,0x00,0x00,0x00,0x00,
0x00,0x00,0x00,0xe0,0xf1,0x00,0xe0,0x61,0x00,0x01,0xe0,0x18,0x04,0x70,0x04,
0x00,0x98,0x01,0x00,0x00,0x00,0x40,0x00,0x00,0x40,0x00,0x00,0x02,0x78,0x00,
0x01,0x00,0x00,0x00,0x00,0x00,0x40,0xd2,0x08,0x40,0x42,0xb4,0x07,0xf0,0x10,
0xc6,0x51,0x1e,0x00,0xb0,0x38,0xcf,0x01,0x7c,0xc7,0xf3,0x3d,0xce,0x73,0x1e,
0x02,0x90,0x9c,0xc7,0xf1,0x01,0x00,0x00,0x00,0x40,0x42,0x00,0x40,0x42,0x24,
0x01,0x20,0x10,0x44,0x72,0x04,0x00,0xb0,0x20,0x43,0x02,0x22,0x49,0x64,0x62,
0x49,0x92,0x24,0x02,0x90,0x24,0x41,0x62,0x00,0x00,0x00,0x00,0xc0,0x21,0x00,
0xc0,0x41,0x24,0x01,0x20,0x10,0xe4,0x93,0x04,0x00,0xd0,0x3c,0xef,0x03,0xa2,
0x4f,0x24,0x42,0x41,0xfa,0x24,0x00,0x70,0x3e,0xe1,0x23,0x00,0x00,0x00,0x00,
0x40,0x92,0x00,0x40,0x42,0x24,0x09,0x20,0x10,0x44,0x90,0x24,0x00,0xd0,0x22,
0x4e,0x00,0x22,0x41,0x24,0x62,0x51,0x12,0x24,0x02,0x10,0x04,0x49,0x20,0x00,
0x00,0x00,0x00,0xe0,0xf3,0x08,0xe0,0xf3,0x7c,0x0f,0xf0,0x3c,0xcf,0xdb,0x3c,
0x02,0x98,0x7e,0xcf,0x03,0x3c,0xcf,0xf3,0x3c,0x7e,0xf6,0x36,0x00,0x38,0x3c,
0xcf,0xf3,0x00,0x00,0x00,0x00,0x00,0x00,0x00,0x00,0x00,0x00,0x00,0x00,0x00,
0x00,0x00,0x00,0x01,0x00,0x00,0x00,0x00,0x20,0x00,0x00,0x00,0x00,0x00,0x00,
0x00,0x00,0x00,0x00,0x00,0x00,0x00,0x00,0x00,0x00,0x00,0x00,0x00,0x00,0x00,
0x00,0x00,0x00,0x00,0x00,0x00,0x01,0x00,0x00,0x00,0x00,0x38,0x00,0x00,0x00,
0x00,0x00,0x00,0x00,0x00,0x00,0x00,0x00,0x00,0x00,0x00,0x00,0x00,0x00,0x00,
0x00,0x00,0x00,0x00,0x00,0x00,0x00,0x00,0x00,0x00,0x00,0x00,0x00,0x00,0x00,
0x00,0x00,0x00,0x00,0x00,0x00,0x00,0x00,0x00,0x00,0x00,0x00,0x00,0x00,0x00,
0x00,0x00,0x00,0x00,0x00,0x00,0x00,0x00,0x00,0x00,0x00,0x00,0x00,0x00,0x00,
0x00,0x00,0x00,0x00,0x00,0x00,0x00,0x00,0x00,0x00,0x00,0x00,0x00,0x00,0x00,
0x00,0x00,0x00,0x00,0x00,0x00,0x00,0x00,0x00,0x00,0x00,0x00,0x00,0x00,0x00,
0x00,0x00,0x00,0x00,0x00,0x00,0x00,0x00,0x00,0x00,0x00,0x00,0x00,0x00,0x00,
0x00,0x00,0x00,0x00,0x00,0x00,0xe0,0x01,0x04,0x00,0x40,0x04,0x40,0x00,0x04,
0x00,0x00,0x04,0x40,0x00,0x10,0x00,0x60,0x00,0x06,0x10,0x00,0x04,0x00,0x00,
0x0e,0x40,0x00,0x06,0x00,0x00,0x00,0x00,0x00,0x40,0x72,0x34,0xce,0x67,0x34,
0xc0,0x73,0x34,0xff,0xff,0x1f,0xc0,0x73,0xd8,0x1f,0x90,0x08,0x09,0xf0,0x1c,
0xf6,0x7f,0x00,0xe9,0x63,0x1c,0x04,0x00,0x00,0x00,0x00,0x00,0x40,0x92,0x1c,
0x88,0x41,0x1c,0x40,0x94,0x9c,0x38,0x4d,0x05,0x40,0x94,0x90,0x14,0x90,0x00,
0x09,0x10,0x25,0x24,0x95,0x00,0x43,0x44,0x24,0x04,0x00,0x00,0x00,0x00,0x00,
0xc0,0xf9,0x0c,0x8f,0x40,0x0c,0x40,0xfc,0x8c,0x30,0x4d,0x05,0x40,0xfc,0x90,
0x14,0x90,0x00,0x09,0x10,0x3f,0x24,0x95,0x00,0x4c,0x44,0x3e,0x04,0x00,0x00,
0x00,0x00,0x00,0x40,0x10,0x94,0x88,0x40,0x14,0x40,0x14,0x94,0x38,0x4d,0x25,
0x40,0x14,0x90,0x14,0x90,0x00,0x09,0x10,0x05,0x24,0x95,0x00,0x48,0x44,0x04,
0x04,0x00,0x00,0x00,0x00,0x00,0xe0,0xf0,0xb4,0xdf,0xf3,0x34,0xc0,0xf3,0x34,
0x3f,0x4d,0x3d,0xc0,0xf3,0xfc,0x14,0x60,0x08,0x06,0xf0,0x3c,0x3f,0xdd,0x00,
0xc7,0xf3,0x3c,0x0f,0x00,0x00,0x00,0x00,0x00,0x00,0x00,0x00,0x00,0x00,0x00,
0x00,0x00,0x00,0x00,0x00,0x00,0x00,0x00,0x00,0x00,0x00,0x00,0x00,0x00,0x00,
0x00,0x00,0x00,0x40,0x00,0x00,0x00,0x00,0x00,0x00,0x00,0x00,0x00,0x00,0x00,
0x00,0x00,0x00,0x00,0x00,0x00,0x00,0x00,0x00,0x00,0x00,0x00,0x00,0x00,0x00,
0x00,0x00,0x00,0x00,0x00,0x00,0xe0,0x00,0x00,0x00,0x00,0x00,0x00,0x00,0x00,
0x00,0x00,0x00,0x00,0x00,0x00,0x00,0x00,0x00,0x00,0x00,0x00,0x00,0x00,0x00,
0x00,0x00,0x00,0x00,0x00,0x00,0x00,0x00,0x00,0x00,0x00,0x00,0x00,0x00,0x00,
0x00,0x00,0x00,0x00,0x00,0x00,0x00,0x00,0x00,0x00,0x00,0x00,0x00,0x00,0x00,
0x00,0x00,0x00,0x00,0x00,0x00,0x00,0x00,0x00,0x00,0x00,0x00,0x00,0x00,0x00,
0x00,0x00,0x00,0x00,0x00,0x00,0x80,0x63,0x00,0x00,0x10,0x00,0x04,0x00,0x00,
0x00,0x00,0x80,0x0f,0x00,0x18,0x00,0x80,0x00,0x00,0x01,0x00,0x00,0xf8,0x18,
0x06,0x00,0x04,0x00,0x00,0x00,0x00,0x00,0x00,0x40,0x42,0xbc,0x99,0xd3,0x1c,
0x06,0xf0,0x1d,0xdf,0x79,0x00,0xe9,0xf1,0x11,0xee,0xf1,0x00,0x87,0x79,0x9c,
0x07,0x90,0x10,0xc4,0x79,0x3c,0xcf,0x77,0x1e,0x00,0x00,0x00,0xc0,0x40,0x62,
0x0f,0x72,0x24,0x04,0x88,0xa4,0x48,0x92,0x00,0x47,0x8a,0x10,0x48,0x9a,0x00,
0x09,0x91,0x24,0x09,0x70,0x10,0x44,0x92,0xc4,0x38,0x92,0x24,0x00,0x00,0x00,
0x00,0x43,0x42,0xcf,0x33,0x3e,0x04,0x88,0xbe,0xe8,0x93,0x00,0x45,0x8a,0x10,
0x4f,0x8a,0x80,0x0f,0x91,0x3e,0x09,0x50,0x10,0xe4,0x93,0xc4,0x30,0xfa,0x24,
0x00,0x00,0x00,0x00,0x42,0x62,0x2f,0x52,0x04,0x04,0x88,0x84,0x48,0x90,0x00,
0x49,0x8a,0x90,0x48,0x8a,0x00,0x01,0x91,0x04,0x09,0x90,0x10,0x44,0x90,0xc4,
0x38,0x12,0x24,0x00,0x00,0x00,0xc0,0xf1,0x3c,0xe9,0xd7,0x3c,0x0f,0xf0,0x3c,
0xcf,0xdb,0x80,0x6f,0xf3,0xbc,0x7f,0xf3,0x01,0xcf,0xdb,0xbc,0x0d,0xf8,0x3c,
0xcf,0xdb,0x3c,0xcf,0xf3,0x36,0x00,0x00,0x00,0x00,0x00,0x00,0x00,0x00,0x00,
0x00,0x80,0x00,0x08,0x00,0x00,0x00,0x80,0x00,0x00,0x00,0x00,0x00,0x00,0x00,
0x00,0x00,0x00,0x00,0x00,0x00,0x00,0x02,0x00,0x00,0x00,0x00,0x00,0x00,0x00,
0x00,0x00,0x00,0x00,0xe0,0x00,0x0e,0x00,0x00,0x00,0xe0,0x00,0x00,0x00,0x00,
0x00,0x00,0x00,0x00,0x00,0x00,0x00,0x00,0x00,0x80,0x03,0x00,0x00,0x00,0x00,
0x00,0x00,0x00,0x00,0x00,0x00,0x00,0x00,0x00,0x00,0x00,0x00,0x00,0x00,0x00,
0x00,0x00,0x00,0x00,0x00,0x00,0x00,0x00,0x00,0x00,0x00,0x00,0x00,0x00,0x00,
0x00,0x00,0x00,0x00,0x00,0x00,0x00,0x00,0x00,0x00,0x00,0x00,0x00,0x00,0x00,
0x00,0x00,0x00,0x00,0x00,0x00,0x00,0x00,0x00,0x00,0x00,0x00,0x00,0x00,0x00,
0x00,0x00,0x00,0x00,0x00,0x00,0x40,0x50,0x00,0x00,0x40,0x00,0x00,0xf0,0x01,
0x00,0x01,0x04,0x01,0x00,0x1e,0x00,0x10,0x00,0x08,0x00,0x00,0x0e,0x10,0x10,
0x00,0x01,0x00,0x44,0x10,0x00,0x00,0x00,0x00,0xc0,0xf3,0x3c,0x07,0x60,0x1e,
0x0f,0x18,0x1d,0x8f,0xe1,0xbc,0x07,0x00,0x24,0x8f,0xf3,0x00,0xcf,0xf1,0x01,
0x89,0xf3,0x18,0x9f,0x01,0x7c,0xc6,0x7b,0x80,0x47,0xf3,0x01,0x40,0x8c,0x0d,
0x09,0x40,0x24,0x03,0x08,0x24,0x03,0x91,0x24,0x01,0x00,0xa4,0x58,0x92,0x80,
0x49,0x62,0x00,0x43,0x92,0x10,0x06,0x01,0x22,0x44,0x14,0x00,0x49,0x62,0x00,
0x40,0x0c,0xbd,0x0f,0x40,0x24,0x0f,0x88,0x3f,0x0f,0x11,0x24,0x01,0x00,0xa4,
0x50,0x90,0x80,0xe8,0x23,0x00,0x4c,0x90,0x10,0x02,0x01,0x22,0x44,0x14,0x00,
0x49,0x22,0x00,0x40,0x8c,0x39,0x01,0x40,0x24,0x0e,0x08,0x05,0x0e,0x11,0x25,
0x09,0x00,0xa4,0x58,0x94,0x80,0x48,0x20,0x00,0x48,0x94,0x10,0x02,0x01,0x22,
0x44,0x94,0x00,0x49,0x22,0x00,0xc0,0xf3,0x3c,0x0f,0xf0,0x36,0x0f,0xf0,0x3d,
0xcf,0xe3,0x67,0x8f,0x00,0x1e,0x8f,0x9f,0x01,0xdf,0xf3,0x00,0x87,0x9f,0x3d,
0xcf,0x03,0x3c,0xcf,0xf3,0x80,0xcd,0xf7,0x00,0x00,0x00,0x00,0x00,0x00,0x00,
0x00,0x00,0x00,0x00,0x00,0x00,0x00,0x00,0x00,0x00,0x00,0x00,0x00,0x00,0x00,
0x00,0x00,0x00,0x00,0x00,0x20,0x00,0x00,0x00,0x00,0x00,0x00,0x00,0x00,0x00,
0x00,0x00,0x00,0x00,0x00,0x00,0x00,0x00,0x00,0x00,0x00,0x00,0x00,0x00,0x00,
0x00,0x00,0x00,0x00,0x00,0x00,0x00,0x00,0x38,0x00,0x00,0x00,0x00,0x00,0x00,
0x00,0x00,0x00,0x00,0x00,0x00,0x00,0x00,0x00,0x00,0x00,0x00,0x00,0x00,0x00,
0x00,0x00,0x00,0x00,0x00,0x00,0x00,0x00,0x00,0x00,0x00,0x00,0x00,0x00,0x00,
0x00,0x00,0x00,0x00,0x00,0x00,0x00,0x00,0x00,0x00,0x00,0x00,0x00,0x00,0x00,
0x00,0x00,0x00,0x00,0x00,0x00,0x00,0x00,0x00,0x00,0x00,0x00,0x00,0x00,0x00,
0x00,0x00,0x00,0x00,0x00,0x00,0xe0,0x43,0x00,0x00,0x00,0x38,0x00,0x00,0x00,
0x00,0x00,0x00,0x00,0x00,0x00,0x00,0x00,0x00,0x00,0x00,0x00,0x00,0x00,0x00,
0x00,0x00,0x00,0x00,0x00,0x00,0x00,0x00,0x00,0x40,0x62,0x9e,0x59,0xf3,0x3d,
0x00,0x00,0x00,0x00,0x00,0x00,0x00,0x00,0x00,0x00,0x00,0x00,0x00,0x00,0x00,
0x00,0x00,0x00,0x00,0x00,0x00,0x00,0x00,0x00,0x00,0x00,0x00,0xc0,0x41,0x24,
0x4f,0x62,0x08,0x00,0x00,0x00,0x00,0x00,0x00,0x00,0x00,0x00,0x00,0x00,0x00,
0x00,0x00,0x00,0x00,0x00,0x00,0x00,0x00,0x00,0x00,0x00,0x00,0x00,0x00,0x00,
0x40,0x41,0x24,0x4f,0x22,0x08,0x00,0x00,0x00,0x00,0x00,0x00,0x00,0x00,0x00,
0x00,0x00,0x00,0x00,0x00,0x00,0x00,0x00,0x00,0x00,0x00,0x00,0x00,0x00,0x00,
0x00,0x00,0x00,0x40,0x42,0x24,0x4f,0x22,0x08,0x00,0x00,0x00,0x00,0x00,0x00,
0x00,0x00,0x00,0x00,0x00,0x00,0x00,0x00,0x00,0x00,0x00,0x00,0x00,0x00,0x00,
0x00,0x00,0x00,0x00,0x00,0x00,0xe0,0xf3,0x36,0xc9,0xf7,0x3c,0x02,0x00,0x00,
0x00,0x00,0x00,0x00,0x00,0x00,0x00,0x00,0x00,0x00,0x00,0x00,0x00,0x00,0x00,
0x00,0x00,0x00,0x00,0x00,0x00,0x00,0x00,0x00,0x00,0x00,0x00,0x00,0x00,0x00,
0x00,0x00,0x00,0x00,0x00,0x00,0x00,0x00,0x00,0x00,0x00,0x00,0x00,0x00,0x00,
0x00,0x00,0x00,0x00,0x00,0x00,0x00,0x00,0x00,0x00,0x00,0x00,0x00,0x01,0x00,
0x00,0x00,0x00,0x00,0x00,0x00,0x00,0x00,0x00,0x00,0x00,0x00,0x00,0x00,0x00,
0x00,0x00,0x00,0x00,0x00,0x00,0x00,0x00,0x00,0x00,0x00,0x00,0x00,0x00,0x00,
0x00,0x01,0x00,0x00,0x00,0x00,0x00,0x00,0x00,0x00,0x00,0x00,0x00,0x00,0x00,
0x00,0x00,0x00,0x00,0x00,0x00,0x00,0x00,0x00,0x00,0x00,0x00,0x00,0x00,0x00,
0x00,0x00,0x00,0x00,0x01,0x00,0x00,0x00,0x00,0x00,0x00,0x00,0x00,0x00,0x00,
0x00,0x00,0x00,0x00,0x00,0x00,0x00,0x00,0x00,0x00,0x00,0x00,0x00,0x00,0x00,
0x00,0x00,0x00,0x00,0x00,0x00,0x00,0x01,0x00,0x00,0x00,0x00,0x00,0x00,0x00,
0x00,0x00,0x00,0x00,0x00,0x00,0x00,0x00,0x00,0x00,0x00,0x00,0x00,0x00,0x00,
0x00,0x00,0x00,0x00,0x00,0x00,0x00,0x00,0x00,0x00,0x01,0x00,0x00,0x00,0x00,
0x00,0x00,0x00,0x00,0x00,0x00,0x00,0x00,0x00,0x00,0x00,0x00,0x00,0x00,0x00,
0x00,0x00,0x00,0x00,0x00,0x00,0x00,0x00,0x00,0x00,0x00,0x00,0x00,0x01,0x00,
0x00,0x00,0x00,0x00,0x00,0x00,0x00,0x00,0x00,0x00,0x00,0x00,0x00,0x00,0x00,
0x00,0x00,0x00,0x00,0x00,0x00,0x00,0x00,0x00,0x00,0x00,0x00,0x00,0x00,0x00,
0x00,0x01,0x00,0x00,0x00,0x00,0x00,0x00,0x00,0x00,0x00,0x00,0x00,0x00,0x00,
0x00,0x00,0x00,0x00,0x00,0x00,0x00,0x00,0x00,0x00,0x00,0x00,0x00,0x00,0x00,
0x00,0x00,0x00,0x00,0x00,0x00,0x00,0x00,0x00,0x00,0x00,0x00,0x00,0x00,0x00,
0x00,0x00,0x00,0x00,0x00,0x00,0x00,0x00,0x00,0x00,0x00,0x00,0x00,0x00,0x00,
0x00,0x00,0x00,0x00,0x00,0x00,0x00,0x00,0x00,0x00,0x00,0x00,0x00,0x00,0x00,
0x00,0x00,0x00,0x00,0x00,0x00,0x00,0x00,0x00,0x00,0x00,0x00,0x00,0x00,0x00,
0x00,0x00,0x00,0x00,0x00,0x00,0x00,0x00,0x00,0x00,0x00,0x00,0x00,0x00,0x00,
0x00,0x00,0x00,0x00,0x00,0x00,0x00,0x00,0x00,0x00,0x00,0x00,0x00,0x00,0x00,
0x00,0x00,0x00,0x00,0x00,0x00,0x00,0x00,0x00,0x00,0x00,0x00,0x00,0x00,0x00,
0x00,0x00,0x00,0x00,0x00,0x00,0x00,0x00,0x00,0x00,0x00,0x00,0x00,0x00,0x00,
0x00,0x00,0x00,0x00,0x00,0x00,0x00,0x00,0x00,0x00,0x00,0x00,0x00,0x00,0x00,
0xe0,0xe1,0x9c,0x07,0x00,0x7c,0x00,0x01,0x04,0x00,0xe0,0x18,0x00,0x00,0xc3,
0xd9,0xf3,0x18,0x00,0x00,0x38,0x04,0x80,0x00,0x08,0x00,0x00,0x08,0x01,0x00,
0x00,0x00,0x00,0x40,0x42,0x08,0x89,0x00,0x46,0x87,0xf1,0x1e,0xc7,0xf7,0x10,
0xcd,0x07,0x66,0x09,0x82,0x24,0x00,0x00,0x24,0xe6,0xf1,0x00,0x8f,0xf3,0x00,
0x8f,0x71,0x00,0x00,0x00,0x00,0x40,0x42,0x08,0x09,0x00,0x02,0x09,0x31,0x04,
0x89,0x21,0x10,0x29,0x02,0x7e,0x0f,0xc1,0x24,0x00,0x00,0x0c,0x44,0x9a,0x80,
0x09,0x32,0x80,0x09,0x91,0x00,0x00,0x00,0x00,0xc0,0x41,0x48,0x09,0x00,0xe2,
0x0f,0xf1,0x84,0x8f,0x20,0x10,0x29,0x02,0x7e,0x09,0x42,0x24,0xe0,0x07,0x30,
0x44,0x8a,0x80,0xc8,0xf3,0x80,0x08,0xf9,0x00,0x00,0x00,0x00,0x40,0x42,0x48,
0x09,0x00,0x42,0x01,0xe1,0x24,0x81,0x20,0x10,0x29,0x02,0x7a,0x09,0x42,0x24,
0x00,0x00,0x20,0x44,0x8a,0x80,0x28,0xe2,0x80,0x08,0x11,0x00,0x00,0x00,0x00,
0xe0,0xe3,0xfc,0x87,0x00,0x7c,0xcf,0xf3,0x3c,0xcf,0xf3,0x3c,0xdf,0x03,0xc3,
0xd9,0x21,0x18,0x00,0x00,0x1c,0x6f,0xf3,0x01,0xff,0xf7,0x00,0xdf,0xf3,0x00,
0x00,0x00,0x00,0x00,0x00,0x00,0x00,0x00,0x00,0x00,0x00,0x00,0x00,0x00,0x00,
0x00,0x02,0x00,0x00,0x00,0x00,0x00,0x00,0x00,0x00,0x00,0x00,0x00,0x00,0x00,
0x00,0x00,0x00,0x00,0x00,0x00,0x00,0x00,0x00,0x00,0x00,0x00,0x00,0x00,0x00,
0x00,0x00,0x00,0x80,0x03,0x00,0x00,0x00,0x00,0x00,0x00,0x00,0x00,0x00,0x00,
0x00,0x00,0x00,0x00,0x00,0x00,0x00,0x00,0x00,0x00,0x00,0x00,0x00,0x00,0x00,
0x00,0x00,0x00,0x00,0x00,0x00,0x00,0x00,0x00,0x00,0x00,0x00,0x00,0x00,0x00,
0x00,0x00,0x00,0x00,0x00,0x00,0x00,0x00,0x00,0x00,0x00,0x00,0x00,0x00,0x00,
0x00,0x00,0x00,0x00,0x00,0x00,0x00,0x00,0x00,0x00,0x00,0x00,0x00,0x00,0x00,
0x00,0x00,0x00,0x00,0x00,0x00,0x00,0x00,0x00,0x00,0x00,0x00,0x00,0x00,0x00,
0x00,0x00,0x00,0x40,0x01,0x18,0x04,0x10,0x00,0x00,0xf0,0x01,0x00,0x00,0x00,
0x41,0x01,0x20,0x00,0x80,0x00,0x00,0xf0,0x00,0x0e,0x00,0x1c,0x00,0x00,0x00,
0x00,0x00,0x00,0xe0,0x73,0x7c,0xcf,0x7b,0x10,0x86,0xf3,0x9c,0x07,0x18,0x1d,
0xdf,0x79,0xbc,0x87,0x7b,0x3c,0x07,0xf0,0x1c,0x1f,0x98,0x3f,0xcf,0xf1,0x25,
0x00,0x00,0x00,0x00,0x00,0x00,0x40,0x94,0x18,0x23,0x96,0x10,0x44,0x92,0x24,
0x09,0x08,0xa4,0x48,0x92,0x0c,0x01,0x92,0x26,0x09,0x98,0x24,0x06,0x08,0x45,
0x42,0x62,0x30,0x00,0x00,0x00,0x00,0x00,0x00,0x40,0xfc,0x08,0x2f,0x94,0x10,
0x44,0x90,0x3e,0x09,0x88,0xbf,0xe8,0x93,0x3c,0xc1,0x93,0xa2,0x0f,0x88,0x3e,
0x02,0x08,0x45,0xe2,0x23,0x00,0x00,0x00,0x00,0x00,0x00,0x00,0x40,0x14,0x08,
0x2e,0x96,0x10,0x44,0x94,0x04,0x09,0x08,0x85,0x48,0x90,0x38,0x29,0x92,0x22,
0x01,0x88,0x04,0x02,0x98,0x45,0x42,0x20,0x00,0x00,0x00,0x00,0x00,0x00,0x00,
0xc0,0xf3,0x3c,0xcf,0xdb,0x3c,0x8f,0x9f,0xbd,0x0d,0xf0,0x3d,0xcf,0xdb,0x3c,
0xef,0xdf,0x7c,0x0f,0xf0,0x3d,0x0f,0xf0,0x3c,0xcf,0xf3,0x08,0x00,0x00,0x00,
0x00,0x00,0x00,0x40,0x00,0x00,0x00,0x00,0x00,0x00,0x00,0x00,0x00,0x00,0x00,
0x08,0x00,0x00,0x00,0x00,0x00,0x00,0x00,0x00,0x00,0x00,0x04,0x00,0x00,0x00,
0x00,0x00,0x00,0x00,0x00,0x00,0xe0,0x00,0x00,0x00,0x00,0x00,0x00,0x00,0x00,
0x00,0x00,0x00,0x0e,0x00,0x00,0x00,0x00,0x00,0x00,0x00,0x00,0x00,0x00,0x0e,
0x00,0x00,0x00,0x00,0x00,0x00,0x00,0x00,0x00,0x00,0x00,0x00,0x00,0x00,0x00,
0x00,0x00,0x00,0x00,0x00,0x00,0x00,0x00,0x00,0x00,0x00,0x00,0x00,0x00,0x00,
0x00,0x00,0x00,0x00,0x00,0x00,0x00,0x00,0x00,0x00,0x00,0x00,0x00,0x00,0x00,
0x00,0x00,0x00,0x00,0x00,0x00,0x00,0x00,0x00,0x00,0x00,0x00,0x00,0x00,0x00,
0x00,0x00,0x00,0x00,0x00,0x00,0x00,0x00,0x00,0x00,0x00,0x00,0x00,0x00,0x00,
0x00,0x00,0x00,0x00,0x00,0x00,0x00,0x00,0x00,0x00,0x00,0x00,0x00,0x00,0x00,
0x00,0x00,0x00,0x00,0x00,0x00,0x00,0x00,0x00,0x00,0x00,0x00,0x00,0x00,0x00,
0x00,0x00,0x00,0x00,0x00,0x00,0x00,0x00,0x00,0x00,0x00,0x00,0x00,0x00,0x00,
0x00,0x00,0x00,0x00,0x00,0x00,0x00,0x00,0x00,0x00,0x00,0x00,0x00,0x00,0x00,
0x00,0x00,0x00,0x00,0x00,0x00,0x00,0x00,0x00,0x00,0x00,0x00,0x00,0x00,0x00,
0x00,0x00,0x00,0x00,0x00,0x00,0x00,0x00,0x00,0x00,0x00,0x00,0x00,0x00,0x00,
0x00,0x00,0x00,0x00,0x00,0x00,0x00,0x00,0x00,0x00,0x00,0x00,0x00,0x00,0x00,
0x00,0x00,0x00,0x00,0x00,0x00,0x00,0x00,0x00,0x00,0x00,0x00,0x00,0x00,0x00,
0x00,0x00,0x00,0x00,0x00,0x00,0x00,0x00,0x00,0x00,0x00,0x00,0x00,0x00,0x00,
0x00,0x00,0x00,0x00,0x00,0x00,0x00,0x00,0x00,0x00,0x00,0x00,0x00,0x00,0x00,
0x00,0x00,0x00,0x00,0x00,0x00,0x00,0x00,0x00,0x00,0x00,0x00,0x00,0x00,0x00,
0x00,0x00,0x00,0x00,0x00,0x00,0x00,0x00,0x00,0x00,0x00,0x00,0x00,0x00,0x00,
0x00,0x00,0x00,0x00,0x00,0x00,0x00,0x00,0x00,0x00,0x00,0x00,0x00,0x00,0x00,
0x00,0x00,0x00,0x00,0x00,0x00,0x00,0x00,0x00,0x00,0x00,0x00,0x00,0x00,0x00,
0x00,0x00,0x00,0x00,0x00,0x00,0x00,0x00,0x00,0x00,0x00,0x00,0x00,0x00,0x00,
0x00,0x00,0x00,0x00,0x00,0x00,0x00,0x00,0x00,0x00,0x00,0x00,0x00,0x00,0x00,
0x00,0x00,0x00,0x00,0x00,0x00,0x00,0x00,0x00,0x00,0x00,0x00,0x00,0x00,0x00,
0x00,0x00,0x00,0x00,0x00,0x00,0x00,0x00,0x00,0x00,0x00,0x00,0x00,0x00,0x00,
0x00,0x00,0x00,0x00,0x00,0x00,0x00,0x00,0x00,0x00,0x00,0x00,0x00,0x00,0x00,
0x00,0x00,0x00,0x00,0x00,0x00,0x00,0x00,0x00,0x00,0x00,0x00,0x00,0x00,0x00,
0x00,0x00,0x00,0x00,0x00,0x00,0x00,0x00,0x00,0x00,0x00,0x00,0x00,0x00,0x00,
0x00,0x00,0x00,0x00,0x00,0x00,0x00,0x00,0x00,0x00,0x00,0x00,0x00,0x00,0x00,
0x00,0x00,0x00,0x00,0x00,0x00,0x00,0x00,0x00,0x00,0x00,0x00,0x00,0x00,0x00,
0x00,0x00,0x00,0x00,0x00,0x00,0x00,0x00,0x00,0x00,0x00,0x00,0x00,0x00,0x00,
0x00,0x00,0x00,0x00,0x00,0x00,0x00,0x00,0x00,0x00,0x00,0x00,0x00,0x00,0x00,
0x00,0x00,0x00,0x00,0x00,0x00,0x00,0x00,0x00,0x00,0x00,0x00,0x00,0x00,0x00,
0x00,0x00,0x00,0x00,0x00,0x00
};
