#define im_width 200
#define im_height 96
static char im_bits[] = {
0x00,0x00,0x00,0x00,0x00,0x00,0x00,0x00,0x00,0x00,0x00,0x00,0x00,0x00,0x00,
0x00,0x00,0x00,0x00,0x00,0x00,0x00,0x00,0x00,0x00,0x00,0x00,0x00,0x00,0x00,
0x00,0x00,0x00,0x00,0x00,0x00,0x00,0x00,0x00,0x00,0x00,0x00,0x00,0x00,0x00,
0x00,0x00,0x00,0x00,0x00,0x00,0x00,0x00,0x00,0x00,0x00,0x00,0x00,0x00,0x00,
0x00,0x00,0x00,0x00,0x00,0x00,0x00,0x00,0x00,0x00,0x00,0x00,0x00,0x00,0x00,
0x00,0x00,0x00,0x00,0x00,0x00,0x00,0x00,0x00,0x00,0x00,0x00,0x00,0x00,0x00,
0x00,0x00,0x00,0x00,0x00,0x00,0x00,0x00,0x00,0x00,0x00,0x00,0x00,0x00,0x00,
0x00,0x00,0x00,0x00,0x00,0x00,0x00,0x00,0x00,0x00,0x00,0x00,0x00,0x00,0x00,
0x00,0x00,0x00,0x00,0x00,0x08,0x00,0x00,0x00,0x80,0x07,0x00,0x00,0x00,0x80,
0x81,0x00,0x00,0x00,0x00,0x00,0x00,0x00,0x00,0x00,0x00,0x00,0x00,0x00,0x00,
0x7c,0x7c,0x9c,0x0f,0xcf,0xc3,0xf1,0xff,0x38,0x3e,0xdd,0x07,0x01,0x00,0x00,
0x00,0x00,0x00,0x00,0x00,0x00,0x00,0x00,0x00,0x00,0x08,0x18,0x20,0x91,0x88,
0x20,0x62,0x24,0x41,0x0c,0x8f,0x00,0x00,0x00,0x00,0x00,0x00,0x00,0x00,0x00,
0x00,0x00,0x00,0x00,0x00,0x08,0x08,0x3c,0x91,0x87,0xf0,0x27,0x24,0x79,0x04,
0x87,0x00,0x00,0x00,0x00,0x00,0x00,0x00,0x00,0x00,0x00,0x00,0x00,0x00,0x00,
0x08,0x08,0x22,0x11,0x8f,0x30,0x20,0x24,0x45,0x04,0x87,0x00,0x00,0x00,0x00,
0x00,0x00,0x00,0x00,0x00,0x00,0x00,0x00,0x00,0x00,0x48,0x08,0x22,0x11,0x8e,
0x20,0x22,0x24,0x45,0x04,0x8d,0x04,0x00,0x00,0x00,0x00,0x00,0x00,0x00,0x00,
0x00,0x00,0x00,0x00,0x00,0x70,0x3c,0xfe,0x9b,0xcf,0xc3,0xf3,0x26,0xfd,0x9e,
0x39,0x07,0x01,0x00,0x00,0x00,0x00,0x00,0x00,0x00,0x00,0x00,0x00,0x00,0x00,
0x00,0x00,0x00,0x00,0x00,0x00,0x00,0x00,0x00,0x00,0x00,0x00,0x00,0x00,0x00,
0x00,0x00,0x00,0x00,0x00,0x00,0x00,0x00,0x00,0x00,0x00,0x00,0x00,0x00,0x00,
0x00,0x00,0x00,0x00,0x00,0x00,0x00,0x00,0x00,0x00,0x00,0x00,0x00,0x00,0x00,
0x00,0x00,0x00,0x00,0x00,0x00,0x00,0x00,0x00,0x00,0x00,0x00,0x00,0x00,0x00,
0x00,0x00,0x00,0x00,0x00,0x00,0x00,0x00,0x00,0x00,0x00,0x00,0x00,0x00,0x00,
0x00,0x00,0x00,0x00,0x00,0x00,0x00,0x00,0x00,0x00,0x00,0x00,0x00,0x00,0x00,
0x00,0x00,0x00,0x00,0x00,0x00,0x00,0x00,0x00,0x00,0x00,0x00,0x00,0x00,0x00,
0x00,0x00,0x00,0x00,0x00,0x00,0x00,0x00,0x00,0x00,0x00,0x00,0x00,0x00,0x00,
0x00,0x00,0x00,0x00,0x00,0x00,0x00,0x00,0x00,0x00,0x00,0x00,0x00,0x00,0x00,
0x00,0x00,0x00,0x00,0x00,0x00,0x00,0x00,0x00,0x00,0x00,0x00,0x00,0x00,0x00,
0x00,0x00,0x00,0x00,0x00,0x00,0x00,0x00,0x00,0x08,0x00,0x00,0x00,0x00,0x00,
0x00,0x00,0x00,0x00,0x00,0x00,0x00,0x00,0x00,0x00,0x70,0x78,0x3c,0x04,0x00,
0x01,0x70,0x38,0x00,0x08,0xc0,0x07,0x00,0x70,0x00,0x86,0x01,0x18,0x00,0x01,
0x03,0x0c,0x00,0x0e,0x01,0x88,0x3c,0x1e,0x87,0xc7,0xc1,0x41,0x20,0x00,0x08,
0x80,0x88,0xc3,0x41,0x00,0xcc,0x1c,0x9f,0xcf,0xe1,0x03,0x78,0x38,0x88,0x0f,
0x04,0x09,0x04,0x84,0x02,0x21,0x42,0x20,0x00,0x08,0x80,0x48,0x04,0x42,0x00,
0xcc,0xa0,0x19,0x03,0x31,0x03,0x98,0x44,0x08,0x01,0x04,0x09,0x04,0x04,0x02,
0xf1,0x47,0x20,0x00,0x08,0x80,0xe7,0xcf,0x43,0x00,0xfc,0xbc,0x10,0x01,0x11,
0x02,0x88,0x44,0x08,0x01,0x04,0x09,0x04,0x04,0x01,0x31,0x40,0x20,0x00,0x08,
0x80,0x64,0x20,0x42,0x00,0xb4,0xa2,0x10,0x01,0x11,0x02,0x88,0x44,0x08,0x01,
0x88,0x08,0x04,0x84,0x00,0x21,0x42,0x20,0x00,0x08,0x80,0x48,0x24,0x42,0x00,
0xb4,0xa2,0x19,0x01,0x31,0x03,0x88,0x44,0x08,0x09,0x70,0x3c,0x9e,0x9f,0xef,
0xc7,0xfb,0xfd,0x00,0x08,0xc0,0x99,0xe7,0xff,0x01,0xce,0x7f,0xbf,0xe7,0xe7,
0x07,0xdc,0x39,0x3f,0x0e,0x00,0x00,0x00,0x00,0x00,0x00,0x00,0x00,0x00,0x08,
0x00,0x00,0x00,0x00,0x00,0x00,0x00,0x00,0x00,0x00,0x00,0x00,0x00,0x00,0x00,
0x00,0x00,0x00,0x00,0x00,0x00,0x00,0x00,0x00,0x00,0x00,0x00,0x00,0x00,0x00,
0x00,0x00,0x00,0x00,0x00,0x00,0x00,0x00,0x00,0x00,0x00,0x00,0x00,0x00,0x00,
0x00,0x00,0x00,0x00,0x00,0x00,0x00,0x00,0x00,0x00,0x00,0x00,0x00,0x00,0x00,
0x00,0x00,0x00,0x00,0x00,0x00,0x00,0x00,0x00,0x00,0x00,0x00,0x00,0x00,0x00,
0x00,0x00,0x00,0x00,0x00,0x00,0x00,0x00,0x00,0x00,0x00,0x00,0x00,0x00,0x00,
0x00,0x00,0x00,0x00,0x00,0x00,0x00,0x00,0x00,0x00,0x00,0x00,0x00,0x00,0x00,
0x00,0x00,0x00,0x00,0x00,0x00,0x00,0x00,0x00,0x00,0x0c,0x03,0x00,0x80,0x00,
0x00,0x00,0x00,0x00,0x14,0xc0,0x00,0x00,0x00,0xdc,0x01,0x03,0x00,0x00,0x00,
0x00,0x00,0x00,0x00,0x00,0x98,0x39,0x3e,0xce,0x87,0x03,0xf0,0xcc,0x7c,0x33,
0x9e,0x0e,0x01,0x00,0x88,0x38,0x3e,0xce,0x07,0x00,0x00,0x00,0x00,0x00,0x00,
0x98,0x45,0x0c,0x90,0x00,0x04,0x50,0x88,0x18,0x22,0x93,0x07,0x00,0x00,0x88,
0x40,0x66,0x91,0x08,0x00,0x00,0x00,0x00,0x00,0x00,0xf8,0x45,0x04,0x9e,0x80,
0x07,0x40,0x88,0x08,0x22,0x91,0x03,0x00,0x00,0xf8,0x78,0xc2,0xbf,0x08,0x00,
0x00,0x00,0x00,0x00,0x00,0x68,0x45,0x04,0x91,0x40,0x04,0x20,0x88,0x08,0x22,
0x81,0x03,0x00,0x00,0x88,0x44,0xc2,0x81,0x08,0x00,0x00,0x00,0x00,0x00,0x00,
0x68,0x45,0x04,0x91,0x44,0x04,0x10,0x88,0x08,0x22,0xa1,0x06,0x00,0x50,0x88,
0x44,0x66,0x91,0x08,0x00,0x00,0x00,0x00,0x00,0x00,0x9c,0x3b,0x1e,0x3f,0xc7,
0x0f,0xf0,0xf1,0x3d,0x7c,0xfe,0x1c,0x01,0x50,0xdc,0xfd,0x3f,0xde,0x0d,0x00,
0x00,0x00,0x00,0x00,0x00,0x00,0x00,0x00,0x00,0x00,0x00,0x00,0x00,0x00,0x00,
0x00,0x00,0x00,0x50,0x00,0x00,0x00,0x00,0x00,0x00,0x00,0x00,0x00,0x00,0x00,
0x00,0x00,0x00,0x00,0x00,0x00,0x00,0x00,0x00,0x00,0x00,0x00,0x00,0x00,0x00,
0x00,0x00,0x00,0x00,0x00,0x00,0x00,0x00,0x00,0x00,0x00,0x00,0x00,0x00,0x00,
0x00,0x00,0x00,0x00,0x00,0x00,0x00,0x00,0x00,0x00,0x00,0x00,0x00,0x00,0x00,
0x00,0x00,0x00,0x00,0x00,0x00,0x00,0x00,0x00,0x00,0x00,0x00,0x00,0x00,0x00,
0x00,0x00,0x00,0x00,0x00,0x00,0x00,0x00,0x00,0x00,0x00,0x00,0x00,0x00,0x00,
0x00,0x00,0x00,0x00,0x00,0x00,0x00,0x00,0x00,0x00,0x00,0x00,0x00,0x00,0x00,
0x00,0x00,0x00,0x00,0x00,0x00,0x00,0x00,0x00,0x00,0xe0,0x01,0x00,0x00,0x40,
0x00,0x00,0x00,0x10,0x00,0x1e,0x00,0x00,0x40,0x00,0x00,0x02,0x12,0x00,0x00,
0x00,0x00,0x00,0x00,0x00,0x80,0x66,0x77,0xce,0xe7,0x33,0xe3,0x01,0x1c,0x1f,
0x0f,0xc7,0xff,0x73,0x70,0x7c,0x1f,0x12,0x00,0x00,0x00,0x00,0x00,0x00,0x00,
0x80,0x44,0x22,0x91,0x48,0x20,0x12,0x01,0x10,0x22,0x82,0x88,0x91,0x44,0x88,
0x18,0x02,0x12,0x00,0x00,0x00,0x00,0x00,0x00,0x00,0x80,0x44,0xb6,0xbf,0x48,
0x20,0xf2,0x00,0x10,0x22,0x82,0x88,0x90,0x44,0xfc,0x09,0x02,0x00,0x00,0x00,
0x00,0x00,0x00,0x00,0x00,0x88,0x44,0x94,0x81,0x48,0x20,0xe2,0x01,0x10,0x22,
0x82,0x88,0x90,0x44,0x0c,0x08,0x02,0x00,0x00,0x00,0x00,0x00,0x00,0x00,0x00,
0x88,0x44,0x1c,0x91,0x48,0x22,0xc2,0x01,0x10,0x22,0x82,0x88,0x90,0x44,0x88,
0x08,0x12,0x00,0x00,0x00,0x00,0x00,0x00,0x00,0x00,0x78,0xf8,0x08,0xde,0x8d,
0xc3,0xf7,0x01,0x7e,0x37,0x0f,0xc7,0x9b,0xfc,0xf1,0x3c,0x1c,0x00,0x00,0x00,
0x00,0x00,0x00,0x00,0x00,0x00,0x00,0x00,0x00,0x00,0x00,0x00,0x00,0x00,0x00,
0x00,0x00,0x00,0x00,0x00,0x00,0x00,0x00,0x00,0x00,0x00,0x00,0x00,0x00,0x00,
0x00,0x00,0x00,0x00,0x00,0x00,0x00,0x00,0x00,0x00,0x00,0x00,0x00,0x00,0x00,
0x00,0x00,0x00,0x00,0x00,0x00,0x00,0x00,0x00,0x00,0x00,0x00,0x00,0x00,0x00,
0x00,0x00,0x00,0x00,0x00,0x00,0x00,0x00,0x00,0x00,0x00,0x00,0x00,0x00,0x00,
0x00,0x00,0x00,0x00,0x00,0x00,0x00,0x00,0x00,0x00,0x00,0x00,0x00,0x00,0x00,
0x00,0x00,0x00,0x00,0x00,0x00,0x00,0x00,0x00,0x00,0x00,0x00,0x00,0x00,0x00,
0x00,0x00,0x00,0x00,0x00,0x00,0x00,0x00,0x00,0x00,0x00,0x00,0x00,0x00,0x00,
0x00,0x00,0x00,0x00,0x00,0x00,0x00,0x00,0x00,0x00,0x00,0x00,0x00,0x00,0x00,
0x00,0x00,0x00,0x00,0x00,0x00,0x00,0x00,0x00,0x00,0x00,0x00,0x00,0x00,0x00,
0x00,0x00,0x00,0x00,0x00,0x00,0x00,0x00,0x00,0x00,0x00,0x00,0x00,0x00,0x00,
0x00,0x00,0x00,0x00,0x00,0x00,0x00,0x00,0x00,0x00,0x00,0x00,0x00,0x00,0x00,
0x00,0x00,0x00,0x00,0x00,0x00,0x00,0x00,0x00,0x00,0x00,0x00,0x00,0x00,0x00,
0x00,0x00,0x00,0x00,0x00,0x00,0x00,0x00,0x00,0x00,0x00,0x00,0x00,0x00,0x00,
0x00,0x00,0x00,0x00,0x00,0x00,0x00,0x00,0x00,0x00,0x00,0x00,0x00,0x00,0x00,
0x00,0x00,0x00,0x00,0x00,0x00,0x00,0x00,0x00,0x00,0x00,0x00,0x00,0x00,0x00,
0x00,0x00,0x00,0x00,0x00,0x00,0x00,0x00,0x00,0x00,0x00,0x00,0x00,0x00,0x00,
0x00,0x00,0x00,0x00,0x00,0x00,0x00,0x00,0x00,0x00,0x00,0x00,0x00,0x00,0x00,
0x00,0x00,0x00,0x00,0x00,0x00,0x00,0x00,0x00,0x00,0x7c,0x3c,0x00,0x00,0x00,
0x00,0x00,0x00,0x00,0x00,0x00,0x00,0x00,0x00,0x00,0x00,0x00,0x00,0x00,0x00,
0x00,0x00,0x00,0x00,0x00,0x88,0x24,0x08,0x00,0x00,0x00,0x00,0x00,0x00,0x00,
0x00,0x00,0x00,0x00,0x00,0x00,0x00,0x00,0x00,0x00,0x00,0x00,0x00,0x00,0x00,
0x88,0x14,0x00,0x00,0x00,0x00,0x00,0x00,0x00,0x00,0x00,0x00,0x00,0x00,0x00,
0x00,0x00,0x00,0x00,0x00,0x00,0x00,0x00,0x00,0x00,0xf8,0x10,0x00,0x00,0x00,
0x00,0x00,0x00,0x00,0x00,0x00,0x00,0x00,0x00,0x00,0x00,0x00,0x00,0x00,0x00,
0x00,0x00,0x00,0x00,0x00,0x08,0x49,0x00,0x00,0x00,0x00,0x00,0x00,0x00,0x00,
0x00,0x00,0x00,0x00,0x00,0x00,0x00,0x00,0x00,0x00,0x00,0x00,0x00,0x00,0x00,
0x08,0x45,0x00,0x00,0x00,0x00,0x00,0x00,0x00,0x00,0x00,0x00,0x00,0x00,0x00,
0x00,0x00,0x00,0x00,0x00,0x00,0x00,0x00,0x00,0x00,0xfc,0x7c,0x08,0x00,0x00,
0x00,0x00,0x00,0x00,0x00,0x00,0x00,0x00,0x00,0x00,0x00,0x00,0x00,0x00,0x00,
0x00,0x00,0x00,0x00,0x00,0x00,0x00,0x00,0x00,0x00,0x00,0x00,0x00,0x00,0x00,
0x00,0x00,0x00,0x00,0x00,0x00,0x00,0x00,0x00,0x00,0x00,0x00,0x00,0x00,0x00,
0x00,0x00,0x00,0x00,0x00,0x00,0x00,0x00,0x00,0x00,0x00,0x00,0x00,0x00,0x00,
0x00,0x00,0x00,0x00,0x00,0x00,0x00,0x00,0x00,0x00,0x00,0x00,0x00,0x00,0x00,
0x00,0x00,0x00,0x00,0x00,0x00,0x00,0x00,0x00,0x00,0x00,0x00,0x00,0x00,0x00,
0x00,0x00,0x00,0x00,0x00,0x00,0x00,0x00,0x00,0x00,0x00,0x00,0x00,0x00,0x00,
0x00,0x00,0x00,0x00,0x00,0x00,0x00,0x00,0x00,0x00,0x00,0x00,0x00,0x00,0x00,
0x00,0x00,0x00,0x00,0x00,0x00,0x00,0x00,0x00,0x00,0x00,0x00,0x00,0x00,0x00,
0x00,0x00,0x00,0x00,0x00,0x00,0x00,0x00,0x00,0x00,0x00,0x00,0x00,0x00,0x00,
0x00,0x00,0x00,0x00,0x00,0x00,0x00,0x00,0x00,0x00,0x00,0x00,0x00,0x00,0x00,
0x00,0x00,0x00,0x00,0x00,0xf0,0x03,0x00,0x03,0x00,0x60,0x80,0x00,0x00,0x00,
0x00,0x80,0x9f,0x02,0x18,0x00,0x10,0x00,0x04,0x00,0x00,0x00,0x00,0x00,0x00,
0x50,0xf2,0x78,0x1e,0x0e,0xcf,0xe3,0xe0,0x7c,0x00,0x00,0x80,0x72,0xe6,0xd3,
0x71,0x1c,0x00,0xe7,0x0f,0x00,0x00,0x00,0x00,0x00,0x50,0x8a,0x4c,0x26,0x91,
0xc9,0x84,0x10,0x89,0x00,0x00,0x80,0x52,0xc4,0xf0,0x88,0x10,0x00,0x44,0x12,
0x00,0x00,0x00,0x00,0x00,0x40,0x78,0x44,0xa2,0xbf,0x48,0x84,0xf8,0x8b,0x00,
0x7e,0x00,0x42,0x44,0x70,0xfc,0x11,0x00,0x44,0x12,0x00,0x00,0x00,0x00,0x00,
0x40,0xf0,0x04,0xa2,0x81,0x40,0x84,0x18,0x88,0x00,0x00,0x00,0x42,0x44,0x70,
0x0c,0x10,0x00,0x44,0x12,0x00,0x00,0x00,0x00,0x00,0x40,0xe0,0x84,0x22,0x91,
0x50,0x84,0x10,0x89,0x00,0x00,0x00,0x42,0x44,0xd0,0x88,0x10,0x00,0x44,0x12,
0x00,0x00,0x00,0x00,0x00,0xe0,0xf8,0xf8,0x77,0x1e,0xff,0xfe,0xe3,0xdd,0x00,
0x00,0x00,0x87,0xef,0x99,0xf3,0x7e,0x80,0x7f,0x12,0x00,0x00,0x00,0x00,0x00,
0x00,0x00,0x00,0x00,0x00,0x00,0x00,0x00,0x00,0x00,0x00,0x00,0x00,0x00,0x00,
0x00,0x00,0x00,0x00,0x00,0x00,0x00,0x00,0x00,0x00,0x00,0x00,0x00,0x00,0x00,
0x00,0x00,0x00,0x00,0x00,0x00,0x00,0x00,0x00,0x00,0x00,0x00,0x00,0x00,0x00,
0x00,0x00,0x00,0x00,0x00,0x00,0x00,0x00,0x00,0x00,0x00,0x00,0x00,0x00,0x00,
0x00,0x00,0x00,0x00,0x00,0x00,0x00,0x00,0x00,0x00,0x00,0x00,0x00,0x00,0x00,
0xfc,0x86,0x01,0x07,0x02,0x00,0x10,0x20,0x00,0x03,0x00,0x00,0x00,0x00,0x00,
0x00,0x00,0x00,0x00,0x00,0x00,0x00,0x00,0x00,0x00,0x88,0xcc,0x00,0x82,0xe3,
0xce,0xf9,0x38,0x78,0x3a,0x8e,0x0f,0x00,0x00,0x00,0x00,0x00,0x00,0x00,0x00,
0x00,0x00,0x00,0x00,0x00,0xa8,0xcc,0x00,0x02,0x42,0x24,0x12,0x20,0x4c,0x1e,
0x11,0x03,0x00,0x00,0x00,0x00,0x00,0x00,0x00,0x00,0x00,0x00,0x00,0x00,0x00,
0x38,0xfc,0x7e,0x02,0xc2,0xf6,0x17,0x20,0x44,0x8e,0x3f,0x01,0x00,0x00,0x00,
0x00,0x00,0x00,0x00,0x00,0x00,0x00,0x00,0x00,0x00,0xa8,0xb4,0x00,0x22,0x82,
0x32,0x10,0x20,0x04,0x8e,0x01,0x01,0x00,0x00,0x00,0x00,0x00,0x00,0x00,0x00,
0x00,0x00,0x00,0x00,0x00,0x88,0xb4,0x00,0x22,0x82,0x23,0x92,0x20,0x84,0x1a,
0x11,0x01,0x00,0x00,0x00,0x00,0x00,0x00,0x00,0x00,0x00,0x00,0x00,0x00,0x00,
0xfc,0xce,0x01,0xff,0x0f,0xc1,0xe3,0xfc,0xf8,0x73,0x9e,0x07,0x00,0x00,0x00,
0x00,0x00,0x00,0x00,0x00,0x00,0x00,0x00,0x00,0x00,0x00,0x00,0x00,0x00,0x00,
0x00,0x00,0x00,0x00,0x00,0x00,0x00,0x00,0x00,0x00,0x00,0x00,0x00,0x00,0x00,
0x00,0x00,0x00,0x00,0x00,0x00,0x00,0x00,0x00,0x00,0x00,0x00,0x00,0x00,0x00,
0x00,0x00,0x00,0x00,0x00,0x00,0x00,0x00,0x00,0x00,0x00,0x00,0x00,0x00,0x00,
0x00,0x00,0x00,0x00,0x00,0x00,0x00,0x00,0x00,0x00,0x00,0x00,0x00,0x00,0x00,
0x00,0x00,0x00,0x00,0x00,0x00,0x00,0x00,0x00,0x00,0x00,0x00,0x00,0x00,0x00,
0x00,0x00,0x00,0x00,0x00,0x00,0x00,0x00,0x00,0x00,0x00,0x00,0x00,0x00,0x00,
0x00,0x00,0x00,0x00,0x00,0x00,0x00,0x00,0x00,0x00,0x00,0x00,0x00,0x00,0x00,
0x00,0x00,0x00,0x00,0x00,0x00,0x00,0x00,0x00,0x00,0x00,0x00,0x00,0x00,0x00
};
